<svg xmlns="http://www.w3.org/2000/svg" viewBox="0 0 820 620" role="img" aria-labelledby="title desc">
  <title id="title">Technical generalist overview</title>
  <desc id="desc">A clean graphic showing general IT work across systems, software, support, networking, cloud, automation, and operations.</desc>
  <defs>
    <linearGradient id="bg" x1="0" y1="0" x2="1" y2="1">
      <stop offset="0%" stop-color="#f8fbff"/>
      <stop offset="100%" stop-color="#edf3f8"/>
    </linearGradient>
    <linearGradient id="center" x1="0" y1="0" x2="1" y2="1">
      <stop offset="0%" stop-color="#2a6fdb"/>
      <stop offset="100%" stop-color="#1f5bbc"/>
    </linearGradient>
  </defs>

  <rect width="820" height="620" fill="#ffffff"/>
  <rect x="48" y="48" width="724" height="524" rx="22" fill="url(#bg)" stroke="#d9e2ec" stroke-width="2"/>

  <circle cx="410" cy="310" r="126" fill="#ffffff" stroke="#d9e2ec" stroke-width="2"/>
  <circle cx="410" cy="310" r="92" fill="url(#center)"/>
  <text x="410" y="296" text-anchor="middle" font-family="Arial, sans-serif" font-size="17" font-weight="700" fill="#ffffff">Practical</text>
  <text x="410" y="324" text-anchor="middle" font-family="Arial, sans-serif" font-size="30" font-weight="700" fill="#ffffff">General IT</text>
  <text x="410" y="351" text-anchor="middle" font-family="Arial, sans-serif" font-size="16" fill="#dbe8ff">hands-on technical work</text>

  <g fill="none" stroke="#b7c7d8" stroke-width="3">
    <path d="M410 184V120"/>
    <path d="M320 220l-52-52"/>
    <path d="M500 220l52-52"/>
    <path d="M284 310H188"/>
    <path d="M536 310h96"/>
    <path d="M320 400l-52 52"/>
    <path d="M500 400l52 52"/>
    <path d="M410 436v64"/>
  </g>

  <g font-family="Arial, sans-serif">
    <g>
      <rect x="328" y="62" width="164" height="64" rx="14" fill="#ffffff" stroke="#d9e2ec" stroke-width="2"/>
      <text x="410" y="90" text-anchor="middle" font-size="18" font-weight="700" fill="#17202a">Systems</text>
      <text x="410" y="112" text-anchor="middle" font-size="14" fill="#5b6878">Linux services · devices</text>
    </g>

    <g>
      <rect x="172" y="126" width="168" height="64" rx="14" fill="#ffffff" stroke="#d9e2ec" stroke-width="2"/>
      <text x="256" y="154" text-anchor="middle" font-size="18" font-weight="700" fill="#17202a">Software</text>
      <text x="256" y="176" text-anchor="middle" font-size="14" fill="#5b6878">tools · scripts · apps</text>
    </g>

    <g>
      <rect x="480" y="126" width="168" height="64" rx="14" fill="#ffffff" stroke="#d9e2ec" stroke-width="2"/>
      <text x="564" y="154" text-anchor="middle" font-size="18" font-weight="700" fill="#17202a">Networking</text>
      <text x="564" y="176" text-anchor="middle" font-size="14" fill="#5b6878">DNS · access · connectivity</text>
    </g>

    <g>
      <rect x="78" y="278" width="170" height="64" rx="14" fill="#ffffff" stroke="#d9e2ec" stroke-width="2"/>
      <text x="163" y="306" text-anchor="middle" font-size="18" font-weight="700" fill="#17202a">Support</text>
      <text x="163" y="328" text-anchor="middle" font-size="14" fill="#5b6878">users · troubleshooting</text>
    </g>

    <g>
      <rect x="572" y="278" width="170" height="64" rx="14" fill="#ffffff" stroke="#d9e2ec" stroke-width="2"/>
      <text x="657" y="306" text-anchor="middle" font-size="18" font-weight="700" fill="#17202a">Cloud</text>
      <text x="657" y="328" text-anchor="middle" font-size="14" fill="#5b6878">hosted services · domains</text>
    </g>

    <g>
      <rect x="172" y="430" width="168" height="64" rx="14" fill="#ffffff" stroke="#d9e2ec" stroke-width="2"/>
      <text x="256" y="458" text-anchor="middle" font-size="18" font-weight="700" fill="#17202a">Automation</text>
      <text x="256" y="480" text-anchor="middle" font-size="14" fill="#5b6878">repeatable admin work</text>
    </g>

    <g>
      <rect x="480" y="430" width="168" height="64" rx="14" fill="#ffffff" stroke="#d9e2ec" stroke-width="2"/>
      <text x="564" y="458" text-anchor="middle" font-size="18" font-weight="700" fill="#17202a">Operations</text>
      <text x="564" y="480" text-anchor="middle" font-size="14" fill="#5b6878">monitoring · backups</text>
    </g>

    <g>
      <rect x="328" y="500" width="164" height="50" rx="14" fill="#ffffff" stroke="#d9e2ec" stroke-width="2"/>
      <text x="410" y="531" text-anchor="middle" font-size="17" font-weight="700" fill="#17202a">Documentation</text>
    </g>
  </g>
</svg>
